<svg xmlns="http://www.w3.org/2000/svg" version="1.1" xmlns:xlink="http://www.w3.org/1999/xlink" xmlns:svgjs="http://svgjs.dev/svgjs" width="1500" height="856" viewBox="0 0 1500 856"><g transform="matrix(1,0,0,1,-0.9091330683643264,0.21052467331406888)"><svg viewBox="0 0 396 226" data-background-color="#dfdad6" preserveAspectRatio="xMidYMid meet" height="856" width="1500" xmlns="http://www.w3.org/2000/svg" xmlns:xlink="http://www.w3.org/1999/xlink"><g id="tight-bounds" transform="matrix(1,0,0,1,0.24001113004817398,-0.05558244879553342)"><svg viewBox="0 0 395.52 226.11116489759107" height="226.11116489759107" width="395.52"><g><svg viewBox="0 0 395.52 226.11116489759107" height="226.11116489759107" width="395.52"><g transform="matrix(1,0,0,1,0,168.23785504744865)"><svg viewBox="0 0 395.52 57.87330985014242" height="57.87330985014242" width="395.52"><g id="textblocktransform"><svg viewBox="0 0 395.52 57.87330985014242" height="57.87330985014242" width="395.52" id="textblock"><g><svg viewBox="0 0 395.52 57.87330985014242" height="57.87330985014242" width="395.52"><g transform="matrix(1,0,0,1,0,0)"><svg width="395.52" viewBox="1.039149319447 -37.8 335.530850680553 49.099999999999994" height="57.87330985014242" data-palette-color="#e33e33"><path d="M12.8-2.5L12.8-32.75 5-32.75 3.55-25.6Q2.95-25.55 2.5-25.55 2.05-25.55 1.55-25.75L1.55-25.75Q1.35-27.9 1.18-30.18 1-32.45 1.05-35L1.05-35 30.3-35Q30.4-32.7 30.23-30.4 30.05-28.1 29.75-25.75L29.75-25.75Q29.25-25.55 28.8-25.55 28.35-25.55 27.75-25.6L27.75-25.6 26.3-32.75 18.05-32.75 18.05-2.5 22.2-1.5Q22.35-0.55 21.95 0.25L21.95 0.25Q20.6 0.15 18.78 0.08 16.95 0 15.55 0L15.55 0Q14.15 0 12.13 0.08 10.1 0.15 8.7 0.25L8.7 0.25Q8.55-0.7 8.8-1.5L8.8-1.5Q9.95-1.65 10.9-1.9 11.85-2.15 12.8-2.5L12.8-2.5ZM38.3-13.5L38.3-12.5Q38.3-7.45 40.32-4.67 42.35-1.9 45.85-1.9L45.85-1.9Q47.4-1.9 48.45-2.08 49.5-2.25 50.52-2.75 51.55-3.25 52.85-4.15L52.85-4.15Q53.65-3.8 53.75-2.95L53.75-2.95Q52.2-1.15 50.05-0.15 47.9 0.85 45.7 0.85L45.7 0.85Q41.9 0.85 39.05-0.75 36.2-2.35 34.6-5.35 33-8.35 33-12.5L33-12.5Q33-16.75 34.67-19.73 36.35-22.7 39.17-24.28 42-25.85 45.45-25.85L45.45-25.85Q49.9-25.85 52.02-22.88 54.15-19.9 54.15-15.2L54.15-15.2Q54.15-14.85 54.15-14.55 54.15-14.25 54.1-13.9L54.1-13.9 53.4-13.35 38.3-13.5ZM45.4-23.7L45.4-23.7Q43.95-23.7 42.52-22.8 41.1-21.9 40-20.1 38.9-18.3 38.5-15.55L38.5-15.55 49.4-16.15Q49.4-20 48.57-21.85 47.75-23.7 45.4-23.7ZM75.4-17.7L74.75-23Q74-23.35 72.92-23.53 71.84-23.7 71-23.7L71-23.7Q68.34-23.7 66.59-22.28 64.84-20.85 63.97-18.32 63.1-15.8 63.1-12.5L63.1-12.5Q63.1-8.75 64.12-6.4 65.15-4.05 66.87-2.95 68.59-1.85 70.7-1.85L70.7-1.85Q72.34-1.85 74.12-2.48 75.9-3.1 77.59-4.2L77.59-4.2Q78-3.95 78.2-3.63 78.4-3.3 78.5-2.9L78.5-2.9Q76.65-0.95 74.42-0.05 72.2 0.85 69.95 0.85L69.95 0.85Q66.84 0.85 64.05-0.7 61.25-2.25 59.5-5.25 57.75-8.25 57.75-12.5L57.75-12.5Q57.75-16.9 59.52-19.88 61.3-22.85 64.3-24.38 67.3-25.9 70.84-25.9L70.84-25.9Q72.75-25.9 74.7-25.53 76.65-25.15 78.59-24.3L78.59-24.3Q78.59-20.6 77.59-17.5L77.59-17.5Q77.4-17.45 77.2-17.45 77-17.45 76.8-17.45L76.8-17.45Q76.45-17.45 76.09-17.5 75.75-17.55 75.4-17.7L75.4-17.7ZM89.29-37.25L89.29-22.25 89.54-22.25Q91.79-24.3 93.92-25.15 96.04-26 97.74-26L97.74-26Q101.84-26 103.72-23.85 105.59-21.7 105.59-18.2L105.59-18.2 105.59-2.5 109.19-1.5Q109.34-0.55 108.94 0.25L108.94 0.25Q107.59 0.15 106.04 0.08 104.49 0 103.09 0L103.09 0Q101.69 0 100.04 0.08 98.39 0.15 96.99 0.25L96.99 0.25Q96.84-0.7 97.09-1.5L97.09-1.5Q97.99-1.7 98.89-1.93 99.79-2.15 100.59-2.5L100.59-2.5 100.59-17.45Q100.59-19.55 99.94-20.65 99.29-21.75 98.19-22.13 97.09-22.5 95.74-22.5L95.74-22.5Q94.14-22.5 92.42-21.7 90.69-20.9 89.54-19.6L89.54-19.6 89.54-2.5 92.89-1.5Q93.04-0.55 92.64 0.25L92.64 0.25Q91.29 0.15 89.87 0.08 88.44 0 87.04 0L87.04 0Q85.64 0 83.99 0.08 82.34 0.15 80.94 0.25L80.94 0.25Q80.79-0.7 81.04-1.5L81.04-1.5Q81.99-1.75 82.92-1.95 83.84-2.15 84.54-2.5L84.54-2.5 84.54-34.3 80.39-34.7Q80.24-35.7 80.64-36.45L80.64-36.45Q84.24-37 87.39-37.8L87.39-37.8Q87.89-37.75 88.34-37.63 88.79-37.5 89.29-37.25L89.29-37.25ZM121.09-32.5L121.09-2.5 124.94-1.5Q125.09-0.55 124.69 0.25L124.69 0.25Q123.34 0.15 121.67 0.08 119.99 0 118.59 0L118.59 0Q117.19 0 115.17 0.08 113.14 0.15 111.74 0.25L111.74 0.25Q111.59-0.7 111.84-1.5L111.84-1.5Q112.89-1.65 113.89-1.85 114.89-2.05 115.84-2.5L115.84-2.5 115.84-32.5 111.99-33.5Q111.84-34.45 112.24-35.25L112.24-35.25Q113.59-35.2 115.27-35.1 116.94-35 118.34-35L118.34-35Q119.79-35 121.79-35.1 123.79-35.2 125.19-35.25L125.19-35.25Q125.34-34.3 125.09-33.5L125.09-33.5Q124.09-33.3 123.09-33.1 122.09-32.9 121.09-32.5L121.09-32.5ZM136.69-25.05L136.54-21.65 136.59-21.6Q138.99-24 141.54-24.9 144.09-25.8 145.99-25.8L145.99-25.8Q149.24-25.8 151.11-23.95 152.99-22.1 152.99-18.55L152.99-18.55 153.04-2.5 156.54-1.5Q156.69-0.55 156.29 0.25L156.29 0.25Q154.94 0.15 153.44 0.08 151.94 0 150.54 0L150.54 0Q149.14 0 147.59 0.08 146.04 0.15 144.64 0.25L144.64 0.25Q144.49-0.7 144.74-1.5L144.74-1.5Q145.74-1.7 146.51-1.95 147.29-2.2 148.04-2.5L148.04-2.5 148.04-16.3Q148.04-19.7 146.99-21 145.94-22.3 143.64-22.3L143.64-22.3Q141.79-22.3 140.04-21.58 138.29-20.85 136.94-19.3L136.94-19.3 136.94-2.5 140.29-1.5Q140.44-0.55 140.04 0.25L140.04 0.25Q138.69 0.15 137.26 0.08 135.84 0 134.44 0L134.44 0Q133.04 0 131.39 0.08 129.74 0.15 128.34 0.25L128.34 0.25Q128.19-0.7 128.44-1.5L128.44-1.5Q129.34-1.75 130.24-1.98 131.14-2.2 131.94-2.5L131.94-2.5 131.94-22 127.79-22.4Q127.64-23.4 128.04-24.15L128.04-24.15Q129.89-24.45 131.64-24.8 133.39-25.15 134.99-25.5L134.99-25.5Q135.84-25.45 136.69-25.05L136.69-25.05ZM167.24 0.8L167.24 0.8Q165.64 0.8 164.34 0.2 163.03-0.4 162.31-1.88 161.59-3.35 161.59-5.95L161.59-5.95 161.59-21.9 158.09-21.9Q157.78-22.45 157.76-23.03 157.74-23.6 157.84-24.15L157.84-24.15Q159.94-24.15 160.99-24.7 162.03-25.25 162.61-26.6 163.19-27.95 163.84-30.25L163.84-30.25 166.49-30.25 166.49-24.65 171.74-24.65Q172.44-23.2 171.74-21.9L171.74-21.9 166.49-21.9 166.49-7.2Q166.49-4.9 166.71-3.73 166.94-2.55 167.49-2.13 168.03-1.7 168.99-1.7L168.99-1.7Q169.78-1.7 170.53-2 171.28-2.3 171.99-2.7L171.99-2.7Q172.69-2.25 172.74-1.2L172.74-1.2Q172.19-0.55 170.74 0.13 169.28 0.8 167.24 0.8ZM180.38-13.5L180.38-12.5Q180.38-7.45 182.41-4.67 184.43-1.9 187.93-1.9L187.93-1.9Q189.48-1.9 190.53-2.08 191.58-2.25 192.61-2.75 193.63-3.25 194.93-4.15L194.93-4.15Q195.73-3.8 195.83-2.95L195.83-2.95Q194.28-1.15 192.13-0.15 189.98 0.85 187.78 0.85L187.78 0.85Q183.98 0.85 181.13-0.75 178.28-2.35 176.68-5.35 175.08-8.35 175.08-12.5L175.08-12.5Q175.08-16.75 176.76-19.73 178.43-22.7 181.26-24.28 184.08-25.85 187.53-25.85L187.53-25.85Q191.98-25.85 194.11-22.88 196.23-19.9 196.23-15.2L196.23-15.2Q196.23-14.85 196.23-14.55 196.23-14.25 196.18-13.9L196.18-13.9 195.48-13.35 180.38-13.5ZM187.48-23.7L187.48-23.7Q186.03-23.7 184.61-22.8 183.18-21.9 182.08-20.1 180.98-18.3 180.58-15.55L180.58-15.55 191.48-16.15Q191.48-20 190.66-21.85 189.83-23.7 187.48-23.7ZM210.78-8.35L210.78-8.35Q209.88-8.35 208.93-8.47 207.98-8.6 206.98-8.9L206.98-8.9Q206.48-8.15 206.28-7.7 206.08-7.25 206.08-6.95L206.08-6.95Q206.08-6.5 206.43-6.05 206.78-5.6 208.28-5.18 209.78-4.75 213.18-4.35L213.18-4.35Q216.53-3.95 218.78-3.3 221.03-2.65 222.18-1.25 223.33 0.15 223.33 2.75L223.33 2.75Q223.33 5 222.23 6.6 221.13 8.2 219.28 9.25 217.43 10.3 215.23 10.8 213.03 11.3 210.78 11.3L210.78 11.3Q206.98 11.3 204.61 10.4 202.23 9.5 201.11 7.98 199.98 6.45 199.98 4.7L199.98 4.7Q199.98 2.9 200.98 1.13 201.98-0.65 204.68-1.75L204.68-1.75Q203.03-3.2 203.03-5.05L203.03-5.05Q203.03-6.7 203.66-7.78 204.28-8.85 205.08-9.6L205.08-9.6Q203.08-10.6 201.73-12.33 200.38-14.05 200.38-16.65L200.38-16.65Q200.38-19.05 201.33-20.7 202.28-22.35 203.83-23.35 205.38-24.35 207.21-24.8 209.03-25.25 210.78-25.25L210.78-25.25Q211.98-25.25 213.28-25.05 214.58-24.85 215.78-24.35L215.78-24.35 222.43-28.45Q222.83-28.25 223.18-27.55 223.53-26.85 223.73-26.08 223.93-25.3 223.83-24.8L223.83-24.8Q222.48-24.35 220.83-23.98 219.18-23.6 217.48-23.5L217.48-23.5Q219.08-22.55 220.13-20.85 221.18-19.15 221.18-16.65L221.18-16.65Q221.18-14.45 220.21-12.88 219.23-11.3 217.63-10.3 216.03-9.3 214.23-8.83 212.43-8.35 210.78-8.35ZM210.78-10.25L210.78-10.25Q213.33-10.25 214.98-12.08 216.63-13.9 216.63-16.75L216.63-16.75Q216.63-19.85 214.98-21.6 213.33-23.35 210.78-23.35L210.78-23.35Q208.23-23.35 206.58-21.6 204.93-19.85 204.93-16.75L204.93-16.75Q204.93-13.9 206.58-12.08 208.23-10.25 210.78-10.25ZM211.53-0.35L211.53-0.35Q210.63-0.5 209.26-0.65 207.88-0.8 206.48-1.15L206.48-1.15Q205.28-0.15 204.66 0.98 204.03 2.1 204.03 4L204.03 4Q204.03 6.1 205.83 7.75 207.63 9.4 211.03 9.4L211.03 9.4Q213.48 9.4 215.23 8.6 216.98 7.8 217.91 6.55 218.83 5.3 218.83 4.05L218.83 4.05Q218.83 2.55 217.81 1.7 216.78 0.85 215.11 0.38 213.43-0.1 211.53-0.35ZM234.08-16.85L234.08-2.5 238.93-1.5Q239.08-0.55 238.68 0.25L238.68 0.25Q237.78 0.2 236.45 0.15 235.13 0.1 233.83 0.05 232.53 0 231.58 0L231.58 0Q230.18 0 228.53 0.08 226.88 0.15 225.48 0.25L225.48 0.25Q225.33-0.7 225.58-1.5L225.58-1.5Q226.53-1.75 227.45-1.95 228.38-2.15 229.08-2.5L229.08-2.5 229.08-22 224.93-22.4Q224.78-23.4 225.18-24.15L225.18-24.15Q226.98-24.4 228.8-24.75 230.63-25.1 232.18-25.5L232.18-25.5Q232.68-25.45 233-25.33 233.33-25.2 233.83-24.95L233.83-24.95 233.83-20.4 233.88-20.35Q235.43-22.65 237.35-24.25 239.28-25.85 241.48-25.85L241.48-25.85Q242.33-25.85 243.15-25.73 243.98-25.6 244.78-25.1L244.78-25.1Q244.88-23.05 244.6-21.2 244.33-19.35 243.78-17.6L243.78-17.6Q243.43-17.55 242.68-17.57 241.93-17.6 241.53-17.8L241.53-17.8 240.83-22.8Q239.08-22.8 237.3-21.53 235.53-20.25 234.08-16.85L234.08-16.85ZM254.23 0.85L254.23 0.85Q251.23 0.85 249.18-0.73 247.13-2.3 247.13-5.5L247.13-5.5Q247.13-8 248.35-9.6 249.58-11.2 251.65-12.08 253.73-12.95 256.28-13.25 258.83-13.55 261.48-13.5L261.48-13.5 261.53-17.9Q261.58-20.7 260.48-22.23 259.38-23.75 257.13-23.75L257.13-23.75Q255.88-23.75 254.73-23.58 253.58-23.4 252.43-23L252.43-23 251.78-17.7Q251.38-17.5 250.68-17.48 249.98-17.45 249.58-17.5L249.58-17.5Q249.13-19.15 248.83-20.8 248.53-22.45 248.58-24L248.58-24Q250.93-25.1 253.3-25.55 255.68-26 258.48-26L258.48-26Q261.28-26 263-25.1 264.73-24.2 265.55-22 266.38-19.8 266.38-15.85L266.38-15.85 266.38-2.45Q267.23-2.05 268.13-1.88 269.03-1.7 269.88-1.45L269.88-1.45Q270.03-0.5 269.63 0.3L269.63 0.3Q268.83 0.45 267.7 0.55 266.58 0.65 265.43 0.65L265.43 0.65Q263.78 0.65 262.58 0.35L262.58 0.35 261.88-2.25 261.68-2.25Q260.43-0.95 258.58-0.05 256.73 0.85 254.23 0.85ZM256.13-1.9L256.13-1.9Q257.53-1.9 259.13-2.78 260.73-3.65 261.48-4.75L261.48-4.75 261.48-11.5Q256.33-11.5 254.23-10.28 252.13-9.05 252.13-6L252.13-6Q252.13-3.95 253.23-2.93 254.33-1.9 256.13-1.9ZM280.17-25.05L280.02-21.65 280.07-21.6Q282.47-24 285.02-24.9 287.57-25.8 289.47-25.8L289.47-25.8Q292.72-25.8 294.6-23.95 296.47-22.1 296.47-18.55L296.47-18.55 296.52-2.5 300.02-1.5Q300.17-0.55 299.77 0.25L299.77 0.25Q298.42 0.15 296.92 0.08 295.42 0 294.02 0L294.02 0Q292.62 0 291.07 0.08 289.52 0.15 288.12 0.25L288.12 0.25Q287.97-0.7 288.22-1.5L288.22-1.5Q289.22-1.7 290-1.95 290.77-2.2 291.52-2.5L291.52-2.5 291.52-16.3Q291.52-19.7 290.47-21 289.42-22.3 287.12-22.3L287.12-22.3Q285.27-22.3 283.52-21.58 281.77-20.85 280.42-19.3L280.42-19.3 280.42-2.5 283.77-1.5Q283.92-0.55 283.52 0.25L283.52 0.25Q282.17 0.15 280.75 0.08 279.32 0 277.92 0L277.92 0Q276.52 0 274.87 0.08 273.22 0.15 271.82 0.25L271.82 0.25Q271.67-0.7 271.92-1.5L271.92-1.5Q272.82-1.75 273.72-1.98 274.62-2.2 275.42-2.5L275.42-2.5 275.42-22 271.27-22.4Q271.12-23.4 271.52-24.15L271.52-24.15Q273.37-24.45 275.12-24.8 276.87-25.15 278.47-25.5L278.47-25.5Q279.32-25.45 280.17-25.05L280.17-25.05ZM310.72 0.8L310.72 0.8Q309.12 0.8 307.82 0.2 306.52-0.4 305.8-1.88 305.07-3.35 305.07-5.95L305.07-5.95 305.07-21.9 301.57-21.9Q301.27-22.45 301.25-23.03 301.22-23.6 301.32-24.15L301.32-24.15Q303.42-24.15 304.47-24.7 305.52-25.25 306.09-26.6 306.67-27.95 307.32-30.25L307.32-30.25 309.97-30.25 309.97-24.65 315.22-24.65Q315.92-23.2 315.22-21.9L315.22-21.9 309.97-21.9 309.97-7.2Q309.97-4.9 310.19-3.73 310.42-2.55 310.97-2.13 311.52-1.7 312.47-1.7L312.47-1.7Q313.27-1.7 314.02-2 314.77-2.3 315.47-2.7L315.47-2.7Q316.17-2.25 316.22-1.2L316.22-1.2Q315.67-0.55 314.22 0.13 312.77 0.8 310.72 0.8ZM321.67-7.5L322.17-2.2Q323.22-1.7 324.29-1.5 325.37-1.3 326.72-1.3L326.72-1.3Q328.77-1.3 330.37-2.2 331.97-3.1 331.97-5.1L331.97-5.1Q331.97-6.15 331.39-7.05 330.82-7.95 329.39-8.9 327.97-9.85 325.32-11.05L325.32-11.05Q322.42-12.4 320.82-14.18 319.22-15.95 319.22-19.1L319.22-19.1Q319.22-21.65 320.49-23.13 321.77-24.6 323.79-25.25 325.82-25.9 328.07-25.9L328.07-25.9Q330.02-25.9 331.94-25.53 333.87-25.15 335.37-24.5L335.37-24.5Q335.37-24.25 335.39-23.95 335.42-23.65 335.42-23.4L335.42-23.4Q335.42-20.35 334.47-17.65L334.47-17.65Q334.27-17.6 334.09-17.57 333.92-17.55 333.72-17.55L333.72-17.55Q332.97-17.55 332.22-17.85L332.22-17.85 331.42-23.25Q330.77-23.45 329.92-23.58 329.07-23.7 328.22-23.7L328.22-23.7Q327.07-23.7 325.94-23.38 324.82-23.05 324.09-22.28 323.37-21.5 323.37-20.1L323.37-20.1Q323.37-19.15 323.79-18.3 324.22-17.45 325.49-16.53 326.77-15.6 329.32-14.35L329.32-14.35Q333.32-12.45 334.94-10.68 336.57-8.9 336.57-6.25L336.57-6.25Q336.57-3.7 335.22-2.1 333.87-0.5 331.69 0.25 329.52 1 327.07 1L327.07 1Q324.72 1 322.69 0.63 320.67 0.25 318.62-1L318.62-1 318.62-1.85Q318.62-3.2 318.79-4.63 318.97-6.05 319.52-7.7L319.52-7.7Q319.82-7.75 320.02-7.75L320.02-7.75Q320.92-7.75 321.67-7.5L321.67-7.5Z" opacity="1" transform="matrix(1,0,0,1,0,0)" fill="#e33e33" class="wordmark-text-0" data-fill-palette-color="primary" id="text-0"></path></svg></g></svg></g></svg></g></svg></g><g transform="matrix(1,0,0,1,127.30357197245789,0)"><svg viewBox="0 0 140.9128560550842 140.9128560550842" height="140.9128560550842" width="140.9128560550842"><g><svg></svg></g><g id="icon-0"><svg viewBox="0 0 140.9128560550842 140.9128560550842" height="140.9128560550842" width="140.9128560550842"><g><path d="M0 70.456c0-38.912 31.544-70.456 70.456-70.456 38.912 0 70.456 31.544 70.457 70.456 0 38.912-31.544 70.456-70.457 70.457-38.912 0-70.456-31.544-70.456-70.457zM70.456 135.694c36.03 0 65.237-29.208 65.238-65.238 0-36.03-29.208-65.237-65.238-65.237-36.03 0-65.237 29.208-65.237 65.237 0 36.03 29.208 65.237 65.237 65.238z" data-fill-palette-color="tertiary" fill="#e33e33" stroke="transparent"></path></g><g transform="matrix(1,0,0,1,29.683422807694946,35.736498334321496)"><svg viewBox="0 0 81.54601043969431 69.43985938644121" height="69.43985938644121" width="81.54601043969431"><g><svg xmlns="http://www.w3.org/2000/svg" xmlns:xlink="http://www.w3.org/1999/xlink" version="1.1" x="0" y="0" viewBox="32.3 46.5 191.3 162.9" style="enable-background:new 0 0 256 256;" xml:space="preserve" height="69.43985938644121" width="81.54601043969431" class="icon-dxe-0" data-fill-palette-color="accent" id="dxe-0"><g fill="#ea6b62" data-fill-palette-color="accent"><path d="M84.5 82.1C93.5 82.1 100.9 75.4 102.1 66.7H132.5L145.5 85.5C146 86.2 146.7 86.5 147.5 86.5H221.2C222.5 86.5 223.6 85.4 223.6 84.1S222.5 81.7 221.2 81.7H148.7L135.7 62.9C135.2 62.2 134.5 61.9 133.7 61.9H102C100.8 53.2 93.4 46.5 84.4 46.5 74.6 46.5 66.6 54.5 66.6 64.3S74.7 82.1 84.5 82.1M84.5 51.4C91.6 51.4 97.4 57.2 97.4 64.3S91.6 77.2 84.5 77.2 71.6 71.4 71.6 64.3 77.3 51.4 84.5 51.4" fill="#ea6b62" data-fill-palette-color="accent"></path><path d="M221.2 109.5H144.5C143.3 100.8 135.9 94.1 126.9 94.1 117.1 94.1 109.1 102.1 109.1 111.9S117.1 129.7 126.9 129.7C135.9 129.7 143.3 123 144.5 114.3H221.2C222.5 114.3 223.6 113.2 223.6 111.9S222.5 109.5 221.2 109.5M126.9 124.9C119.8 124.9 114 119.1 114 112S119.8 99 126.9 99 139.8 104.8 139.8 111.9C139.8 119.1 134 124.9 126.9 124.9" fill="#ea6b62" data-fill-palette-color="accent"></path><path d="M221.2 140.3H154.3C153.5 140.3 152.7 140.7 152.2 141.4L142.8 156.4H101.6L91.4 137.4C91 136.6 90.2 136.1 89.3 136.1H67.7C66.5 127.4 59.1 120.7 50.1 120.7 40.3 120.7 32.3 128.7 32.3 138.5S40.3 156.3 50.1 156.3C59.1 156.3 66.5 149.6 67.7 140.9H87.8L98 159.9C98.4 160.7 99.2 161.2 100.1 161.2H144.1C144.9 161.2 145.7 160.8 146.2 160.1L155.6 145.1H221.1C222.4 145.1 223.5 144 223.5 142.7 223.6 141.4 222.5 140.3 221.2 140.3M50.1 151.6C43 151.6 37.2 145.8 37.2 138.7S43 125.8 50.1 125.8 63 131.6 63 138.7C63.1 145.8 57.3 151.6 50.1 151.6" fill="#ea6b62" data-fill-palette-color="accent"></path><path d="M221.2 168.6H182.6C181.7 168.6 180.9 169.1 180.5 169.8L169.1 189.2H110.9C109.7 180.5 102.3 173.8 93.3 173.8 83.5 173.8 75.5 181.8 75.5 191.6S83.5 209.4 93.3 209.4C102.3 209.4 109.7 202.7 110.9 194H170.5C171.4 194 172.2 193.5 172.6 192.8L184 173.4H221.2C222.5 173.4 223.6 172.3 223.6 171S222.5 168.6 221.2 168.6M93.3 204.6C86.2 204.6 80.4 198.8 80.4 191.7S86.2 178.8 93.3 178.8 106.2 184.6 106.2 191.7C106.3 198.8 100.5 204.6 93.3 204.6" fill="#ea6b62" data-fill-palette-color="accent"></path></g></svg></g></svg></g></svg></g></svg></g><g></g></svg></g><defs></defs></svg><rect width="395.52" height="226.11116489759107" fill="none" stroke="none" visibility="hidden"></rect></g></svg></g></svg>